<?xml version="1.0" encoding="UTF-8"?>
<svg version="1.1" xmlns="http://www.w3.org/2000/svg" width="400" height="400">
<path d="M0 0 C132 0 264 0 400 0 C400 132 400 264 400 400 C268 400 136 400 0 400 C0 268 0 136 0 0 Z " fill="#FEFEFE" transform="translate(0,0)"/>
<path d="M0 0 C1.12051758 -0.0299707 1.12051758 -0.0299707 2.26367188 -0.06054688 C7.51445571 -0.05593688 10.6023053 0.87711863 14.6875 4.4375 C16.61281398 7.26234591 18.1719692 10.15841782 19.78125 13.171875 C21.54373092 15.80007025 21.54373092 15.80007025 24.90625 15.765625 C25.8240625 15.65734375 26.741875 15.5490625 27.6875 15.4375 C27.66429687 14.52226562 27.64109375 13.60703125 27.6171875 12.6640625 C27.59914062 11.47554687 27.58109375 10.28703125 27.5625 9.0625 C27.53929687 7.87914062 27.51609375 6.69578125 27.4921875 5.4765625 C27.6875 2.4375 27.6875 2.4375 29.6875 0.4375 C32.18359375 0.171875 32.18359375 0.171875 35.125 0.1875 C36.09308594 0.18234375 37.06117188 0.1771875 38.05859375 0.171875 C40.6875 0.4375 40.6875 0.4375 43.6875 2.4375 C43.98955494 5.35142396 44.09679533 8.05362549 44.07568359 10.97045898 C44.08094055 11.85350708 44.08619751 12.73655518 44.09161377 13.6463623 C44.10485531 16.57561755 44.09606029 19.50433263 44.0859375 22.43359375 C44.08795722 24.46379196 44.09086781 26.49398946 44.09463501 28.52418518 C44.09906414 32.78385306 44.09260901 37.0433325 44.07861328 41.30297852 C44.06153199 46.76878859 44.07135226 52.23415643 44.08933067 57.69995022 C44.10016185 61.89406171 44.09672503 66.08806806 44.0889473 70.28218269 C44.08694288 72.29765945 44.08941298 74.31314568 44.09638596 76.32861137 C44.10398824 79.14438087 44.0924129 81.95943071 44.07568359 84.77514648 C44.08479263 86.03063042 44.08479263 86.03063042 44.09408569 87.31147766 C44.03112932 93.01899767 44.03112932 93.01899767 42.28229713 95.14888096 C39.282242 97.57296869 35.57895498 96.94934318 31.875 96.9375 C31.08029297 96.96585937 30.28558594 96.99421875 29.46679688 97.0234375 C25.40980845 97.03686013 22.57182675 96.79769123 19.32421875 94.23828125 C16.86614554 91.62726127 15.05907882 89.24389074 13.3125 86.125 C12.80976563 85.24199219 12.30703125 84.35898438 11.7890625 83.44921875 C11.24378906 82.45341797 11.24378906 82.45341797 10.6875 81.4375 C8.2125 81.9325 8.2125 81.9325 5.6875 82.4375 C5.63851562 83.28054687 5.58953125 84.12359375 5.5390625 84.9921875 C5.46429688 86.08789062 5.38953125 87.18359375 5.3125 88.3125 C5.24289063 89.40304688 5.17328125 90.49359375 5.1015625 91.6171875 C4.6875 94.4375 4.6875 94.4375 2.6875 96.4375 C-0.0625 96.703125 -0.0625 96.703125 -3.3125 96.6875 C-4.92125 96.69523437 -4.92125 96.69523437 -6.5625 96.703125 C-9.3125 96.4375 -9.3125 96.4375 -11.3125 94.4375 C-11.51649918 91.56172655 -11.59565427 88.78185976 -11.5871582 85.90454102 C-11.59226913 85.02149292 -11.59738007 84.13844482 -11.60264587 83.2286377 C-11.61658549 80.29949226 -11.61558182 77.37058098 -11.61328125 74.44140625 C-11.61716582 72.41120821 -11.62149999 70.38101098 -11.62626648 68.35081482 C-11.63373813 64.09119027 -11.63343061 59.83164858 -11.62817383 55.57202148 C-11.62237841 50.10623265 -11.63930744 44.64078258 -11.6625185 39.17504978 C-11.67723173 34.98095202 -11.67813082 30.7869363 -11.67500877 26.59281731 C-11.67552322 24.57733425 -11.68078388 22.56184675 -11.69082069 20.54638863 C-11.70312093 17.73065135 -11.69643207 14.91557968 -11.68481445 12.09985352 C-11.69245819 11.26286423 -11.70010193 10.42587494 -11.70797729 9.56352234 C-11.65612919 3.89462283 -11.65612919 3.89462283 -10.02665997 1.72697353 C-7.07085503 -0.49652504 -3.55048542 -0.03318211 0 0 Z " fill="#010101" transform="translate(218.3125,151.5625)"/>
<path d="M0 0 C0.80373047 -0.00064453 1.60746094 -0.00128906 2.43554688 -0.00195312 C3.26763672 0.01802734 4.09972656 0.03800781 4.95703125 0.05859375 C5.76978516 0.05150391 6.58253906 0.04441406 7.41992188 0.03710938 C18.08788258 0.14743832 25.84808069 3.79344968 33.4609375 11.125 C40.14174018 18.34160641 42.38970326 25.9326167 42.30078125 35.61328125 C42.30460815 36.55108429 42.30843506 37.48888733 42.31237793 38.45510864 C42.31508338 40.4266264 42.30781866 42.3981809 42.29101562 44.36962891 C42.26963481 47.35662527 42.29083919 50.3412035 42.31640625 53.328125 C42.33929488 67.50374071 41.31843027 77.8148658 31.0703125 88.3984375 C23.45831691 95.33840632 15.05186968 96.85560061 5.08203125 96.87109375 C3.82036133 96.90783203 3.82036133 96.90783203 2.53320312 96.9453125 C1.31407227 96.95111328 1.31407227 96.95111328 0.0703125 96.95703125 C-1.02543091 96.96935791 -1.02543091 96.96935791 -2.14331055 96.98193359 C-5.26442723 96.25541327 -6.28982301 95.04593251 -8.23046875 92.49609375 C-8.62502662 89.54824105 -8.7777919 86.97432092 -8.74804688 84.02734375 C-8.75505615 83.17487061 -8.76206543 82.32239746 -8.76928711 81.4440918 C-8.78688443 78.62776055 -8.77523835 75.81243511 -8.76171875 72.99609375 C-8.76441317 71.0384095 -8.76829517 69.08072655 -8.77331543 67.12304688 C-8.77921283 63.02070368 -8.77063968 58.91870893 -8.75195312 54.81640625 C-8.7291635 49.55688747 -8.74228528 44.29818511 -8.76624298 39.03869629 C-8.78069438 34.99635665 -8.77609798 30.9542107 -8.76573181 26.91186523 C-8.76306271 24.97257389 -8.76634072 23.03326498 -8.77565002 21.09399414 C-8.78580477 18.38380325 -8.77033003 15.674936 -8.74804688 12.96484375 C-8.7561438 12.16264404 -8.76424072 11.36044434 -8.77258301 10.53393555 C-8.71774439 6.93534691 -8.53978113 4.90191859 -6.32658386 1.99815369 C-3.97589306 0.31366677 -2.8601383 -0.0073839 0 0 Z " fill="#030303" transform="translate(282.23046875,151.50390625)"/>
<path d="M0 0 C1.98535067 0.94467362 3.68323132 1.97801321 5.45703125 3.2734375 C6.52953125 4.0365625 7.60203125 4.7996875 8.70703125 5.5859375 C13.33704444 10.11072312 16.30904477 15.18637065 16.625 21.77734375 C16.63692502 23.13017144 16.64325133 24.48305786 16.64453125 25.8359375 C16.65677734 26.52107422 16.66902344 27.20621094 16.68164062 27.91210938 C16.68690658 29.70077862 16.57903146 31.48892598 16.45703125 33.2734375 C13.69171933 36.03874942 11.74805862 35.63712764 7.89453125 35.8359375 C3.85616179 35.69568976 3.85616179 35.69568976 0.45703125 37.2734375 C-0.07690972 39.93819846 0.05816609 41.64165704 1.52148438 43.95947266 C3.03548578 45.88112987 4.60174039 47.73985301 6.20703125 49.5859375 C13.55090424 58.11572299 17.19358123 64.32030605 16.84765625 75.859375 C16.30457003 80.60594855 14.9447629 84.22545603 12.45703125 88.2734375 C11.90015625 89.1809375 11.34328125 90.0884375 10.76953125 91.0234375 C4.4199341 97.20142392 -2.83581277 99.68964109 -11.51318359 99.79907227 C-19.33143003 99.59695653 -24.79771319 96.07966234 -30.22265625 90.56640625 C-35.37258026 84.06043715 -36.88245297 76.56512348 -36.84375 68.4375 C-36.54296875 66.2734375 -36.54296875 66.2734375 -34.54296875 63.2734375 C-31.28515625 62.76171875 -31.28515625 62.76171875 -27.41796875 62.5859375 C-26.13664063 62.52019531 -24.8553125 62.45445312 -23.53515625 62.38671875 C-22.54773438 62.34933594 -21.5603125 62.31195313 -20.54296875 62.2734375 C-19.70801751 60.03184056 -19.70801751 60.03184056 -19.54296875 57.2734375 C-20.95575685 54.58459762 -20.95575685 54.58459762 -23.10546875 52.0234375 C-23.84152344 51.06824219 -24.57757813 50.11304688 -25.3359375 49.12890625 C-26.42841797 47.71544922 -26.42841797 47.71544922 -27.54296875 46.2734375 C-28.68571714 44.63987744 -29.81275816 42.99512462 -30.91796875 41.3359375 C-31.37945312 40.64628906 -31.8409375 39.95664063 -32.31640625 39.24609375 C-32.72117188 38.59511719 -33.1259375 37.94414062 -33.54296875 37.2734375 C-33.91679687 36.68691406 -34.290625 36.10039062 -34.67578125 35.49609375 C-37.11715395 29.23870156 -36.696904 20.42885354 -34.41015625 14.17578125 C-27.05221106 1.40531618 -14.52370629 -4.14963037 0 0 Z " fill="#030303" transform="translate(179.54296875,150.7265625)"/>
<path d="M0 0 C3.97772646 1.36711622 6.16799866 3.47466421 8.171875 7.1484375 C12.45640735 17.85976838 14.13720909 29.78621924 16.4453125 41.046875 C16.96332422 43.57296127 17.48155673 46.09900227 18 48.625 C18.2573291 49.87990234 18.5146582 51.13480469 18.77978516 52.42773438 C20.87763324 62.58179981 23.09685711 72.68347557 26.08984375 82.6171875 C26.86021838 85.48046831 27.29685495 87.80873038 27.3125 90.75 C27.32925781 91.48734375 27.34601563 92.2246875 27.36328125 92.984375 C26.89928195 95.55882274 26.04791903 96.41685692 24 98 C21.25 98.6875 21.25 98.6875 18 98 C16.12630295 96.18022229 14.55833161 94.21310895 12.9296875 92.171875 C9.81953776 88.67138258 6.02575687 86.33657607 2 84 C1.34515625 83.6184375 0.6903125 83.236875 0.015625 82.84375 C-4.02880623 81.15073228 -7.87070251 81.82185079 -12 83 C-17.61730931 86.13170695 -22.35051544 89.93114247 -26.3125 95 C-28.41270821 97.66471504 -28.63643081 97.93584073 -32.1875 98.5625 C-35 98 -35 98 -38 96 C-38.62318779 89.50418374 -37.22639875 83.66287857 -35.6875 77.375 C-35.25284949 75.54973049 -34.81927325 73.72420486 -34.38671875 71.8984375 C-34.16032715 70.94767334 -33.93393555 69.99690918 -33.70068359 69.01733398 C-32.68529484 64.64479403 -31.75659003 60.25498073 -30.82348633 55.86425781 C-29.41529273 49.25622688 -27.97356963 42.65566932 -26.52050781 36.05737305 C-26.17162671 34.46891671 -25.82464109 32.88004295 -25.47949219 31.29077148 C-18.17227547 -2.33825083 -18.17227547 -2.33825083 0 0 Z " fill="#040404" transform="translate(114,150)"/>
<path d="M0 0 C2.625 0.375 2.625 0.375 5 1 C5.33 1.99 5.66 2.98 6 4 C5.01 4.99 4.02 5.98 3 7 C2.01 6.67 1.02 6.34 0 6 C-0.33 7.98 -0.66 9.96 -1 12 C-1.33 12 -1.66 12 -2 12 C-2.05395478 10.37536158 -2.09277195 8.75021459 -2.125 7.125 C-2.14820313 6.22007812 -2.17140625 5.31515625 -2.1953125 4.3828125 C-2 2 -2 2 0 0 Z " fill="#D5D5D5" transform="translate(225,232)"/>
<path d="M0 0 C1.98 0.495 1.98 0.495 4 1 C3.67 2.32 3.34 3.64 3 5 C3.66 5.33 4.32 5.66 5 6 C4.01 6.33 3.02 6.66 2 7 C0.4375 5.1875 0.4375 5.1875 -1 3 C-0.67 2.01 -0.34 1.02 0 0 Z " fill="#151515" transform="translate(235,238)"/>
</svg>
